<?xml version="1.0" encoding="utf-8"?>
<!-- Generator: Adobe Illustrator 21.1.0, SVG Export Plug-In . SVG Version: 6.00 Build 0)  -->
<svg version="1.1" id="Layer_1" xmlns="http://www.w3.org/2000/svg" xmlns:xlink="http://www.w3.org/1999/xlink" x="0px" y="0px"
	 viewBox="0 0 561.3 561.3" style="enable-background:new 0 0 561.3 561.3;" xml:space="preserve">
<style type="text/css">
	.st0{fill:#6CB799;}
	.st1{fill:none;}
	.st2{fill:#FFFFFF;}
	.st3{fill:#354050;}
</style>
<path class="st0" d="M149.5,206.9c-35.3,0-63.9,28.6-63.9,63.9c0,35.3,28.6,63.9,63.9,63.9c35.3,0,63.9-28.6,63.9-63.9
	C213.4,235.5,184.8,206.9,149.5,206.9z"/>
<path class="st1" d="M154.6,287.5l-0.2-2.3c-2.2-4.2-3.9-8.9-5.1-13.3c-1.1,3.8-2.4,7.8-4.2,11.6l-0.4,4c-0.5-0.1-1.1-0.1-1.6-0.2
	c-0.8,1.4-1.7,2.7-2.7,4c1.3,0.3,2.6,0.5,3.9,0.7l-0.4,4c-1.3-0.2-2.7-0.5-4-0.8c1.2,0.9,2.7,1.8,4.6,2.4l2.4,0.8v2.6v1.1v0.3h4.8
	V302v-1v-2.6l2.5-0.8c1.7-0.6,3.2-1.4,4.4-2.2c-1,0.2-2,0.4-2.9,0.6l-0.4-4c1.1-0.1,2.2-0.3,3.2-0.5c-1-1.3-1.9-2.6-2.7-4
	C155.2,287.4,154.9,287.5,154.6,287.5z"/>
<path class="st2" d="M144.2,291.9c-1.3-0.2-2.6-0.4-3.9-0.7c-0.7,0.9-1.4,1.7-2.2,2.5c0.4,0.4,1,0.9,1.6,1.3c1.3,0.3,2.7,0.6,4,0.8
	L144.2,291.9z"/>
<path class="st2" d="M145.1,283.5c-0.6,1.3-1.3,2.6-2,3.8c0.5,0.1,1.1,0.2,1.6,0.2L145.1,283.5z"/>
<path class="st2" d="M155.5,295.9c1-0.2,2-0.3,2.9-0.6c0.8-0.5,1.4-1.1,2-1.6c-0.7-0.8-1.4-1.6-2.1-2.4c-1.1,0.2-2.1,0.4-3.2,0.5
	L155.5,295.9z"/>
<path class="st2" d="M155.6,287.4c-0.4-0.7-0.8-1.4-1.2-2.1l0.2,2.3C154.9,287.5,155.2,287.4,155.6,287.4z"/>
<g>
	<path class="st2" d="M139.4,278.4c0.5-1.3,1-2.5,1.5-3.8c-16.7-4-28.8-18.7-30.7-36.7C108.9,257.3,121.8,273.7,139.4,278.4z"/>
	<path class="st2" d="M135.7,285.4c0.7-1.1,1.4-2.2,2.1-3.4c-13.8-3.9-24.9-14.1-28.8-27.9C110.8,269.6,122.2,280.7,135.7,285.4z"/>
	<path class="st2" d="M108.8,264.5c2.3,12.2,10.8,21.5,21.2,26.9l0.9-0.7c0.7-0.5,1.3-1.1,1.9-1.7
		C121.6,284.5,112.7,275.8,108.8,264.5z"/>
	<path class="st2" d="M160.9,282.2c0.6,1.2,1.3,2.3,2.1,3.4c13.8-4.6,25.5-15.8,27.4-31.5C186.4,268.1,174.9,278.5,160.9,282.2z"/>
	<path class="st2" d="M189,237.9c-1.9,18.2-14.2,33.1-31.3,36.8c0.4,1.3,0.9,2.6,1.5,3.8C177.1,274.1,190.3,257.6,189,237.9z"/>
	<path class="st2" d="M166,289.2c0.5,0.5,1.1,1,1.6,1.5l1.2,1c10.5-5.3,19.2-14.8,21.6-27.1C186.4,276,177.3,284.8,166,289.2z"/>
	<path class="st2" d="M149.3,251.1c-0.4,0-1.3,30.5-16.2,42.4c0,0,3.3,5.1,10,7.4v1.1h-2.7l1.1,4h15.3l1.1-4h-2.9v-1
		c6.8-2.2,10.2-7.5,10.2-7.5C150.8,282,149.7,251.1,149.3,251.1z"/>
</g>
<g>
	<g>
		<path class="st3" d="M255.5,295.9v-4.2c-12.6-1.2-20-6.7-20-16.2c0-9.5,7.4-15,20-16.2v-4.2h10.6v4.2c12.6,1.2,20,6.7,20,16.2
			c0,9.6-7.4,15-20,16.2v4.2H255.5z M255.5,282.4v-13.7c-6.2,0.8-9.3,3.1-9.3,6.8C246.3,279.3,249.4,281.6,255.5,282.4z
			 M266.1,268.7v13.7c6.2-0.8,9.3-3.1,9.3-6.8C275.4,271.8,272.3,269.5,266.1,268.7z"/>
		<path class="st3" d="M291.2,295.9v-29.5h9.4v15.5l10.5-15.5h9.5v29.5h-9.4v-16.3l-11,16.3H291.2z"/>
		<path class="st3" d="M327.4,295.9v-29.5h9.4v10.1h10.6v-10.1h9.4v29.5h-9.4v-11.2h-10.6v11.2H327.4z"/>
		<path class="st3" d="M363.9,295.9v-40.8h10.5v24l16.5-24h10.9v40.8h-10.6v-25.2l-17.2,25.2H363.9z"/>
		<path class="st3" d="M407,281.1c0-9.2,6.9-15.5,16.1-15.5c6.4,0,10.3,2.8,12.1,5.4l-6.1,5.7c-1.2-1.7-3.1-2.8-5.6-2.8
			c-3.9,0-6.9,2.7-6.9,7.2c0,4.5,3,7.2,6.9,7.2c2.5,0,4.4-1.2,5.6-2.9l6.1,5.7c-1.8,2.6-5.7,5.4-12.1,5.4
			C413.9,296.6,407,290.4,407,281.1z"/>
		<path class="st3" d="M445.1,295.9v-21.3H437v-8.2h25.5v8.2h-8v21.3H445.1z"/>
	</g>
</g>
</svg>
